<svg xmlns="http://www.w3.org/2000/svg" xmlns:xlink="http://www.w3.org/1999/xlink" width="1000" zoomAndPan="magnify" viewBox="0 0 750 172.499995" height="230" preserveAspectRatio="xMidYMid meet" version="1.0"><defs><clipPath id="4c512824e6"><path d="M 18.285156 3.6875 L 733.960938 3.6875 L 733.960938 168.210938 L 18.285156 168.210938 Z M 18.285156 3.6875 " clip-rule="nonzero"/></clipPath></defs><g clip-path="url(#4c512824e6)"><path fill="#ffffff" d="M 201.53125 45.625 C 201.53125 17.320312 171.507812 3.6875 135.835938 3.6875 C 97.679688 3.6875 62.667969 20.59375 49.816406 46.804688 C 46.269531 53.789062 44.425781 61.515625 44.4375 69.347656 C 44.277344 76.121094 46.148438 82.789062 49.816406 88.484375 C 55.324219 96.613281 65.15625 101.722656 79.582031 101.722656 C 97.285156 101.722656 111.316406 92.023438 111.316406 75.117188 C 111.316406 75.117188 111.578125 70.402344 106.070312 70.402344 C 101.613281 70.402344 100.429688 73.546875 100.5625 75.117188 C 101.222656 88.355469 93.351562 98.972656 79.320312 98.972656 C 63.589844 98.972656 57.027344 85.601562 57.027344 71.316406 C 57.027344 42.089844 79.058594 22.6875 102.003906 14.304688 C 112.730469 10.253906 124.117188 8.25 135.582031 8.402344 C 161.542969 8.402344 182.789062 18.363281 182.789062 45.101562 C 182.789062 67.382812 164.035156 86.386719 141.609375 88.089844 L 142.527344 85.078125 C 147.117188 68.695312 152.757812 50.738281 161.933594 37.5 C 162.460938 36.710938 163.378906 35.402344 164.425781 34.09375 L 163.117188 32.519531 C 161.15625 33.710938 159.269531 35.023438 157.472656 36.449219 C 114.46875 70.003906 113.160156 164.371094 55.851562 164.371094 C 53.878906 164.371094 51.90625 164.238281 49.953125 163.976562 C 38.019531 162.011719 31.722656 154.015625 31.722656 142.878906 C 31.722656 140.652344 32.511719 137.632812 32.511719 135.933594 C 32.601562 132.765625 30.109375 130.128906 26.945312 130.035156 C 26.917969 130.035156 26.894531 130.035156 26.871094 130.035156 L 26.21875 130.035156 C 21.105469 130.035156 19.007812 134.09375 18.875 139.863281 C 18.484375 156.507812 30.804688 166.207031 49.824219 168.042969 C 51.917969 168.175781 54.015625 168.304688 56.246094 168.304688 C 100.960938 168.304688 128.367188 134.488281 140.039062 93.464844 C 145.949219 92.773438 151.789062 91.546875 157.476562 89.796875 C 178.199219 84.023438 201.53125 70.140625 201.53125 45.625 Z M 627.453125 55.457031 L 611.714844 55.457031 L 608.175781 63.714844 L 602.011719 77.605469 L 594.671875 77.605469 L 592.433594 82.324219 L 600.046875 82.324219 L 590.859375 102.640625 C 584.3125 116.925781 574.082031 130.953125 568.179688 130.953125 C 566.871094 130.953125 566.078125 130.425781 566.078125 129.117188 C 566.078125 127.8125 566.46875 126.625 567.917969 122.957031 C 569.753906 118.628906 572.773438 112.339844 575 107.753906 C 578.273438 101.070312 583.523438 90.714844 583.523438 85.601562 C 583.523438 80.492188 580.25 76.425781 573.820312 76.425781 C 566.609375 76.425781 560.050781 80.757812 554.011719 87.039062 L 557.949219 77.605469 L 543.136719 77.605469 L 531.066406 105.128906 C 526.222656 114.828125 516.378906 130.949219 510.214844 130.949219 C 508.90625 130.949219 508.378906 130.160156 508.378906 128.851562 C 508.503906 127.675781 508.816406 126.523438 509.296875 125.441406 C 509.824219 124.265625 517.035156 107.359375 517.035156 107.359375 L 530.148438 77.34375 L 514.152344 77.34375 L 501.429688 106.570312 C 497.503906 115.613281 487.535156 130.949219 481.105469 130.949219 C 479.984375 131.058594 478.988281 130.242188 478.878906 129.117188 L 478.878906 128.589844 C 478.878906 127.015625 480.0625 124.132812 480.980469 122.035156 L 487.664062 107.359375 L 501.429688 77.34375 L 485.574219 77.34375 L 482.414062 84.160156 C 480.0625 88.746094 476.121094 94.117188 469.832031 94.117188 C 466.8125 94.117188 465.375 92.941406 464.71875 91.761719 C 463.800781 81.667969 457.371094 76.292969 447.933594 76.292969 C 434.820312 76.292969 425.507812 84.027344 419.339844 93.464844 C 415.300781 99.972656 412.128906 106.976562 409.902344 114.300781 C 404.261719 123.609375 398.367188 130.820312 393.644531 130.820312 C 392.460938 130.820312 391.675781 130.160156 391.675781 128.589844 C 391.675781 127.015625 393.25 123.480469 393.773438 122.164062 L 404.132812 100.148438 C 407.019531 93.335938 408.988281 88.878906 408.988281 84.421875 C 408.988281 79.703125 405.71875 76.292969 400.332031 76.292969 C 392.855469 76.292969 384.726562 80.621094 378.300781 87.695312 C 378.519531 86.570312 378.605469 85.429688 378.5625 84.285156 C 378.5625 79.042969 375.941406 76.289062 370.5625 76.289062 C 363.746094 76.289062 356.664062 80.355469 350.242188 87.691406 L 354.4375 77.464844 L 340.011719 77.464844 L 327.816406 104.996094 C 322.050781 117.972656 312.738281 130.820312 307.492188 130.820312 C 306.3125 130.820312 305.527344 130.160156 305.527344 128.589844 C 305.527344 126.101562 308.28125 119.941406 309.328125 117.449219 L 325.457031 80.882812 C 326.636719 78.132812 318.898438 76.425781 309.066406 76.425781 C 298.96875 76.425781 288.609375 81.410156 281.003906 87.828125 C 275.628906 92.28125 271.695312 94.515625 269.722656 94.515625 C 269.082031 94.652344 268.449219 94.242188 268.308594 93.601562 C 268.289062 93.511719 268.28125 93.425781 268.285156 93.335938 C 268.285156 91.109375 273.660156 84.8125 273.660156 79.964844 C 273.660156 77.738281 272.480469 76.292969 269.460938 76.292969 C 263.695312 76.292969 256.871094 81.800781 251.890625 87.566406 L 256.085938 77.472656 L 241.929688 77.472656 L 229.734375 104.996094 C 223.964844 117.972656 214.390625 131.476562 209.144531 131.476562 C 207.964844 131.476562 207.179688 130.820312 207.179688 129.246094 C 207.179688 126.757812 209.804688 120.730469 211.246094 117.582031 L 227.375 80.886719 C 228.554688 78.132812 220.816406 76.425781 210.980469 76.425781 C 196.425781 76.425781 182.261719 86.257812 174.789062 96.351562 C 166.527344 107.226562 160.890625 118.761719 160.757812 128.199219 C 160.628906 135.800781 164.558594 140.519531 172.429688 140.519531 C 181.214844 140.519531 188.300781 133.574219 192.363281 128.328125 C 192.121094 129.367188 191.945312 130.417969 191.832031 131.476562 C 191.832031 136.714844 193.933594 140.515625 200.355469 140.515625 C 205.992188 140.515625 213.46875 135.800781 219.5 128.328125 L 214.644531 139.46875 L 229.984375 139.46875 L 245.066406 105.261719 C 250.058594 94.121094 255.699219 88.355469 257.265625 88.355469 C 257.628906 88.289062 257.976562 88.523438 258.046875 88.882812 C 258.054688 88.925781 258.058594 88.96875 258.058594 89.011719 C 258.058594 90.191406 255.699219 93.339844 255.699219 96.21875 C 255.699219 99.097656 257.265625 101.328125 261.46875 101.328125 C 264.742188 101.328125 268.417969 99.757812 271.695312 97.65625 C 263.960938 108.144531 258.710938 119.15625 258.710938 128.199219 C 258.582031 135.804688 262.507812 140.519531 270.382812 140.519531 C 278.640625 140.519531 286.378906 132.65625 290.574219 127.414062 C 290.414062 128.628906 290.328125 129.855469 290.3125 131.082031 C 290.3125 136.195312 293.199219 140.519531 299.097656 140.519531 C 305.652344 140.519531 310.898438 136.457031 317.457031 128.464844 L 312.597656 139.472656 L 328.332031 139.472656 L 342.753906 106.835938 C 349.050781 92.679688 357.570312 85.074219 361.769531 85.074219 C 362.816406 84.96875 363.757812 85.730469 363.867188 86.777344 C 363.867188 86.78125 363.867188 86.78125 363.867188 86.785156 L 363.867188 87.175781 C 363.691406 88.765625 363.25 90.316406 362.554688 91.761719 L 341.855469 139.601562 L 357.984375 139.601562 L 372.671875 106.308594 C 378.964844 92.023438 385.917969 85.074219 391.160156 85.074219 C 392.734375 85.074219 393.390625 85.867188 393.390625 87.566406 C 393.25 89.390625 392.761719 91.171875 391.949219 92.816406 L 377.785156 122.957031 C 376.480469 125.859375 375.683594 128.960938 375.425781 132.128906 C 375.425781 136.71875 377.914062 140.789062 385 140.789062 C 394.183594 140.789062 401.128906 133.84375 408.992188 123.488281 L 408.992188 125.714844 C 409.652344 133.972656 414.238281 141.179688 426.433594 141.179688 C 440.855469 141.179688 452.53125 131.21875 459.609375 115.363281 C 462.28125 109.789062 464.015625 103.808594 464.726562 97.664062 C 466.308594 98.464844 468.070312 98.828125 469.835938 98.71875 C 472.222656 98.746094 474.570312 98.160156 476.660156 97.011719 L 474.167969 102.382812 C 471.273438 108.414062 468.128906 115.097656 465.648438 120.738281 C 464.074219 124.074219 463.140625 127.671875 462.890625 131.351562 C 462.890625 136.984375 466.039062 141.050781 472.457031 141.050781 C 478.878906 141.050781 487.671875 135.023438 493.964844 126.503906 L 494.101562 126.503906 C 493.679688 128.265625 493.457031 130.066406 493.4375 131.875 C 493.4375 136.59375 494.882812 141.050781 501.4375 141.050781 C 509.050781 141.050781 514.945312 135.546875 520.71875 128.597656 L 515.863281 139.609375 L 531.730469 139.609375 L 544.453125 110.773438 C 551.667969 94.523438 558.878906 84.695312 565.558594 84.695312 C 566.707031 84.652344 567.691406 85.515625 567.796875 86.660156 L 567.796875 87.046875 C 567.796875 89.800781 563.859375 97.273438 560.324219 104.742188 C 557.039062 111.558594 554.546875 116.796875 552.847656 120.867188 C 551.269531 124.292969 550.335938 127.980469 550.09375 131.742188 C 550.09375 136.71875 552.847656 140.523438 559.015625 140.523438 C 568.1875 140.523438 577.5 131.609375 582.472656 124.921875 C 581.351562 128.128906 580.734375 131.488281 580.648438 134.882812 C 580.648438 144.0625 586.148438 148.648438 593.886719 148.648438 C 599.027344 148.609375 604.027344 146.960938 608.183594 143.933594 C 614.210938 139.734375 619.070312 133.445312 623.132812 127.679688 L 620.378906 125.054688 C 616.578125 130.429688 612.375 135.542969 608.046875 138.6875 C 605.765625 140.617188 602.902344 141.726562 599.914062 141.832031 C 596.644531 141.832031 594.542969 140.128906 594.542969 135.9375 C 594.542969 131.75 596.503906 126.105469 599.527344 118.503906 C 599.652344 118.375 603.980469 108.671875 608.046875 99.371094 C 611.457031 91.5 614.867188 83.902344 615.523438 82.332031 L 625.878906 82.332031 L 627.980469 77.609375 L 617.75 77.609375 Z M 180.164062 131.082031 C 177.9375 131.082031 176.363281 130.296875 176.363281 127.414062 C 176.492188 119.679688 182.914062 105.917969 190.921875 94.90625 C 196.558594 87.304688 203.898438 81.671875 211.765625 81.671875 L 201.800781 103.949219 C 194.324219 120.726562 186.195312 131.082031 180.164062 131.082031 Z M 278.25 131.082031 C 276.023438 131.082031 274.449219 130.296875 274.320312 127.414062 C 274.449219 119.679688 280.875 105.917969 288.875 94.90625 C 294.511719 87.304688 301.855469 81.671875 309.722656 81.671875 L 299.753906 103.949219 C 292.152344 121.121094 284.414062 131.082031 278.246094 131.082031 Z M 452.386719 87.703125 C 451.996094 96.21875 444.523438 116.792969 435.738281 129.117188 C 432.203125 134.097656 429.179688 135.539062 426.5625 135.539062 C 422.886719 135.539062 421.832031 132.523438 422.359375 128.066406 C 423.140625 120.335938 429.570312 102.25 438.492188 89.796875 C 442.558594 84.160156 445.3125 81.800781 448.460938 81.800781 C 451.605469 81.800781 452.523438 84.421875 452.386719 87.703125 Z M 697.128906 77.605469 L 711.574219 44.269531 L 694.480469 44.269531 L 680.035156 77.605469 L 643.703125 77.605469 L 637.644531 91.585938 L 673.984375 91.585938 L 659.542969 124.917969 L 676.636719 124.917969 L 691.082031 91.585938 L 727.410156 91.585938 L 733.460938 77.605469 Z M 697.128906 77.605469 " fill-opacity="1" fill-rule="nonzero"/></g></svg>